<svg xmlns="http://www.w3.org/2000/svg" width="1320" height="640" viewBox="0 0 1320 640" role="img" aria-labelledby="title desc">
  <title id="title">Transcriber-LP desktop UI night screenshot</title>
  <desc id="desc">A screenshot-style preview of the Transcriber-LP dark theme with media preview, transcript editor, batch queue, and model downloads settings.</desc>
  <defs>
    <style>
      .ui { font-family: -apple-system, BlinkMacSystemFont, "Segoe UI", sans-serif; }
      .mono { font-family: "SFMono-Regular", Menlo, Consolas, monospace; }
    </style>
    <linearGradient id="videoGlow" x1="0" y1="0" x2="1" y2="1">
      <stop offset="0" stop-color="#0a1721"/>
      <stop offset="0.52" stop-color="#081019"/>
      <stop offset="1" stop-color="#102838"/>
    </linearGradient>
    <filter id="modalShadow" x="-20%" y="-20%" width="140%" height="150%">
      <feDropShadow dx="0" dy="18" stdDeviation="18" flood-color="#000000" flood-opacity="0.42"/>
    </filter>
  </defs>

  <rect width="1320" height="640" fill="#0d1720"/>
  <rect x="0" y="0" width="1320" height="34" fill="#111c26"/>
  <circle cx="20" cy="17" r="6" fill="#ff5f57"/>
  <circle cx="40" cy="17" r="6" fill="#ffbd2e"/>
  <circle cx="60" cy="17" r="6" fill="#28c840"/>
  <text class="ui" x="660" y="22" text-anchor="middle" font-size="13" font-weight="600" fill="#d5e4ef">Transcriber-LP 0.4.17</text>

  <text class="ui" x="22" y="72" font-size="24" font-weight="700" fill="#f0f7fb">Transcriber-LP</text>

  <rect x="20" y="90" width="510" height="82" rx="14" fill="#102431" stroke="#4a8ea0" stroke-width="2" stroke-dasharray="9 7"/>
  <text class="ui" x="275" y="139" text-anchor="middle" font-size="18" font-weight="700" fill="#72f2d3">Drop audio or video</text>

  <rect x="20" y="184" width="510" height="34" rx="8" fill="#111c26" stroke="#19b993"/>
  <text class="ui" x="275" y="206" text-anchor="middle" font-size="13" font-weight="700" fill="#dceaf4">Browse file...</text>

  <rect x="20" y="230" width="510" height="32" rx="8" fill="#111c26" stroke="#223240"/>
  <text class="ui" x="34" y="251" font-size="13" fill="#93aabb">~/Movies/interview-night-session.mov</text>

  <rect x="20" y="282" width="510" height="136" rx="10" fill="#111c26" stroke="#223240"/>
  <rect x="38" y="269" width="98" height="24" rx="8" fill="#0d1720"/>
  <text class="ui" x="48" y="287" font-size="14" font-weight="700" fill="#d5e4ef">Batch Queue</text>
  <rect x="38" y="303" width="474" height="70" rx="8" fill="#0c151e" stroke="#263949"/>
  <text class="ui" x="54" y="330" font-size="12" fill="#93aabb">[done] lecture-notes.mp4 - lecture-notes.txt</text>
  <text class="ui" x="54" y="356" font-size="12" fill="#93aabb">[queued] interview-night-session.mov</text>
  <rect x="38" y="384" width="146" height="26" rx="8" fill="#172533" stroke="#2d4152"/>
  <text class="ui" x="111" y="402" text-anchor="middle" font-size="12" font-weight="650" fill="#b9cddd">Add files</text>
  <rect x="194" y="384" width="146" height="26" rx="8" fill="#162431" stroke="#283d4f"/>
  <text class="ui" x="267" y="402" text-anchor="middle" font-size="12" font-weight="650" fill="#70899c">Remove</text>
  <rect x="350" y="384" width="162" height="26" rx="8" fill="#12c598" stroke="#17d0a1"/>
  <text class="ui" x="431" y="402" text-anchor="middle" font-size="12" font-weight="750" fill="#06251e">Transcribe batch</text>

  <rect x="20" y="436" width="510" height="174" rx="10" fill="#111c26" stroke="#223240"/>
  <rect x="38" y="423" width="84" height="24" rx="8" fill="#0d1720"/>
  <text class="ui" x="48" y="441" font-size="14" font-weight="700" fill="#d5e4ef">Settings</text>
  <text class="ui" x="42" y="474" font-size="13" font-weight="600" fill="#93aabb">Output format</text>
  <rect x="184" y="456" width="326" height="32" rx="8" fill="#0c151e" stroke="#263949"/>
  <text class="ui" x="198" y="477" font-size="13" font-weight="650" fill="#f0f7fb">txt</text>
  <path d="M494 469 l5 5 l5 -5" fill="none" stroke="#72f2d3" stroke-width="2" stroke-linecap="round" stroke-linejoin="round"/>
  <text class="ui" x="42" y="520" font-size="13" font-weight="600" fill="#93aabb">Current Model</text>
  <rect x="184" y="502" width="326" height="32" rx="8" fill="#0c151e" stroke="#263949"/>
  <text class="ui" x="198" y="523" font-size="13" font-weight="650" fill="#f0f7fb">Medium (downloaded)</text>
  <path d="M494 515 l5 5 l5 -5" fill="none" stroke="#72f2d3" stroke-width="2" stroke-linecap="round" stroke-linejoin="round"/>
  <text class="ui" x="42" y="566" font-size="13" font-weight="600" fill="#93aabb">Translation target</text>
  <rect x="184" y="548" width="326" height="32" rx="8" fill="#0c151e" stroke="#263949"/>
  <text class="ui" x="198" y="569" font-size="13" font-weight="650" fill="#f0f7fb">Keep original language</text>
  <path d="M494 561 l5 5 l5 -5" fill="none" stroke="#72f2d3" stroke-width="2" stroke-linecap="round" stroke-linejoin="round"/>

  <rect x="554" y="50" width="744" height="296" rx="10" fill="#111c26" stroke="#223240"/>
  <rect x="576" y="37" width="130" height="24" rx="8" fill="#0d1720"/>
  <text class="ui" x="586" y="55" font-size="14" font-weight="700" fill="#d5e4ef">Media Preview</text>
  <rect x="576" y="74" width="700" height="204" rx="4" fill="url(#videoGlow)" stroke="#263949"/>
  <rect x="748" y="100" width="334" height="150" rx="4" fill="#d6e0e7" opacity="0.92"/>
  <rect x="770" y="120" width="292" height="18" fill="#243545"/>
  <rect x="770" y="152" width="130" height="10" fill="#9fb3c1"/>
  <rect x="770" y="176" width="244" height="10" fill="#b9c8d2"/>
  <rect x="770" y="200" width="202" height="10" fill="#b9c8d2"/>
  <rect x="1110" y="100" width="88" height="56" rx="4" fill="#0f2838" stroke="#31536a"/>
  <circle cx="1154" cy="126" r="15" fill="#72f2d3" opacity="0.65"/>
  <rect x="1110" y="168" width="88" height="56" rx="4" fill="#162431" stroke="#31536a"/>
  <rect x="576" y="292" width="72" height="32" rx="8" fill="#172533" stroke="#2d4152"/>
  <text class="ui" x="612" y="313" text-anchor="middle" font-size="12" font-weight="700" fill="#dceaf4">Play</text>
  <rect x="660" y="292" width="72" height="32" rx="8" fill="#172533" stroke="#2d4152"/>
  <text class="ui" x="696" y="313" text-anchor="middle" font-size="12" font-weight="700" fill="#dceaf4">Stop</text>
  <text class="ui" x="746" y="313" font-size="13" font-weight="650" fill="#93aabb">48:00</text>
  <rect x="800" y="305" width="408" height="6" rx="3" fill="#223240"/>
  <circle cx="948" cy="308" r="8" fill="#1cc79a"/>
  <text class="ui" x="1222" y="313" font-size="13" font-weight="650" fill="#93aabb">02:36:07</text>

  <rect x="554" y="364" width="744" height="248" rx="10" fill="#111c26" stroke="#223240"/>
  <rect x="576" y="351" width="138" height="24" rx="8" fill="#0d1720"/>
  <text class="ui" x="586" y="369" font-size="14" font-weight="700" fill="#d5e4ef">Transcript Editor</text>
  <rect x="576" y="392" width="700" height="170" rx="8" fill="#0c151e" stroke="#263949"/>
  <text class="mono" x="596" y="428" font-size="13" fill="#b9cddd">Speaker 1: The first draft missed this sentence.</text>
  <text class="mono" x="596" y="460" font-size="13" fill="#b9cddd">Speaker 2: Correct it while listening to the source.</text>
  <text class="mono" x="596" y="492" font-size="13" fill="#72f2d3">Speaker 1: Save changes after review.</text>
  <rect x="1002" y="576" width="126" height="32" rx="8" fill="#172533" stroke="#2d4152"/>
  <text class="ui" x="1065" y="597" text-anchor="middle" font-size="12" font-weight="700" fill="#dceaf4">Open transcript</text>
  <rect x="1140" y="576" width="136" height="32" rx="8" fill="#12c598" stroke="#17d0a1"/>
  <text class="ui" x="1208" y="597" text-anchor="middle" font-size="12" font-weight="750" fill="#06251e">Save changes</text>

  <g filter="url(#modalShadow)">
    <rect x="432" y="76" width="420" height="416" rx="13" fill="#0f1822" stroke="#314252"/>
    <rect x="432" y="76" width="420" height="28" rx="13" fill="#111c26"/>
    <circle cx="448" cy="90" r="6" fill="#ff5f57"/>
    <circle cx="468" cy="90" r="6" fill="#6b7782"/>
    <circle cx="488" cy="90" r="6" fill="#28c840"/>
    <text class="ui" x="642" y="95" text-anchor="middle" font-size="13" font-weight="700" fill="#d5e4ef">Settings</text>

    <rect x="452" y="122" width="384" height="314" rx="10" fill="#111c26" stroke="#223240"/>
    <rect x="474" y="109" width="132" height="24" rx="8" fill="#0f1822"/>
    <text class="ui" x="484" y="127" font-size="14" font-weight="700" fill="#d5e4ef">Model downloads</text>
    <rect x="470" y="144" width="348" height="142" rx="8" fill="#0c151e" stroke="#263949"/>
    <text class="ui" x="492" y="178" font-size="13" fill="#dceaf4">Medium - downloaded - ggml-medium.bin</text>
    <text class="ui" x="492" y="212" font-size="13" fill="#dceaf4">Large v3 Turbo Q5 - downloaded - ggml-large-v3-t...</text>
    <rect x="470" y="302" width="170" height="46" rx="8" fill="#162431" stroke="#283d4f"/>
    <text class="ui" x="555" y="331" text-anchor="middle" font-size="13" font-weight="700" fill="#70899c">Base</text>
    <rect x="648" y="302" width="170" height="46" rx="8" fill="#172533" stroke="#2d4152"/>
    <text class="ui" x="733" y="331" text-anchor="middle" font-size="13" font-weight="700" fill="#b9cddd">Small</text>
    <rect x="470" y="358" width="170" height="46" rx="8" fill="#162431" stroke="#283d4f"/>
    <text class="ui" x="555" y="387" text-anchor="middle" font-size="13" font-weight="700" fill="#70899c">Medium</text>
    <rect x="648" y="358" width="170" height="46" rx="8" fill="#172533" stroke="#2d4152"/>
    <text class="ui" x="733" y="387" text-anchor="middle" font-size="13" font-weight="700" fill="#b9cddd">Turbo</text>
    <rect x="470" y="414" width="348" height="8" rx="4" fill="#223240"/>
    <rect x="470" y="414" width="214" height="8" rx="4" fill="#1cc79a"/>
    <rect x="470" y="432" width="348" height="34" rx="8" fill="#0c151e" stroke="#263949"/>
    <text class="ui" x="486" y="454" font-size="12" fill="#b9cddd">Downloading Small: 287.4 MiB / 466 MiB at 5.2 MiB/s</text>
    <rect x="774" y="454" width="62" height="32" rx="8" fill="#172533" stroke="#2d4152"/>
    <text class="ui" x="805" y="475" text-anchor="middle" font-size="12" font-weight="700" fill="#dceaf4">Close</text>
  </g>

  <rect x="576" y="620" width="700" height="6" rx="3" fill="#223240"/>
  <rect x="576" y="620" width="226" height="6" rx="3" fill="#1cc79a"/>
</svg>
