<svg xmlns="http://www.w3.org/2000/svg" width="1320" height="640" viewBox="0 0 1320 640" role="img" aria-labelledby="title desc">
  <title id="title">Transcriber-LP desktop UI screenshot</title>
  <desc id="desc">A screenshot-style preview of the Transcriber-LP light theme with a compact wide desktop layout.</desc>
  <defs>
    <style>
      .ui { font-family: -apple-system, BlinkMacSystemFont, "Segoe UI", sans-serif; }
      .mono { font-family: "SFMono-Regular", Menlo, Consolas, monospace; }
    </style>
  </defs>

  <rect width="1320" height="640" fill="#f4f7fb"/>
  <rect x="0" y="0" width="1320" height="34" fill="#eef3f8"/>
  <circle cx="20" cy="17" r="6" fill="#ff5f57"/>
  <circle cx="40" cy="17" r="6" fill="#ffbd2e"/>
  <circle cx="60" cy="17" r="6" fill="#28c840"/>
  <text class="ui" x="660" y="22" text-anchor="middle" font-size="13" font-weight="600" fill="#243545">Transcriber-LP 0.3.0</text>

  <text class="ui" x="22" y="74" font-size="24" font-weight="700" fill="#102131">Transcriber-LP</text>
  <text class="ui" x="22" y="96" font-size="13" fill="#647789">Offline media transcription for clean text and subtitles</text>

  <rect x="22" y="118" width="518" height="112" rx="14" fill="#edf8fb" stroke="#86b7c5" stroke-width="2" stroke-dasharray="9 7"/>
  <text class="ui" x="281" y="181" text-anchor="middle" font-size="18" font-weight="700" fill="#0d5d67">Drop audio or video</text>

  <rect x="22" y="242" width="518" height="30" rx="8" fill="#f7fafc" stroke="#cddbe5"/>
  <text class="ui" x="281" y="262" text-anchor="middle" font-size="13" font-weight="650" fill="#203140">Browse...</text>

  <rect x="22" y="282" width="518" height="32" rx="8" fill="#ffffff" stroke="#d7e1ea"/>
  <text class="ui" x="34" y="303" font-size="13" fill="#526678">~/Movies/sample-interview.mov</text>

  <rect x="22" y="332" width="518" height="146" rx="10" fill="#ffffff" stroke="#d8e2eb"/>
  <rect x="38" y="319" width="104" height="24" rx="8" fill="#f4f7fb"/>
  <text class="ui" x="48" y="337" font-size="14" font-weight="700" fill="#142536">Transcription</text>

  <text class="ui" x="46" y="372" font-size="13" font-weight="600" fill="#627486">Output format</text>
  <rect x="190" y="352" width="320" height="30" rx="8" fill="#ffffff" stroke="#ccd9e4"/>
  <text class="ui" x="204" y="372" font-size="13" fill="#142536">srt</text>

  <text class="ui" x="46" y="411" font-size="13" font-weight="600" fill="#627486">Model</text>
  <rect x="190" y="391" width="320" height="30" rx="8" fill="#ffffff" stroke="#ccd9e4"/>
  <text class="ui" x="204" y="411" font-size="13" fill="#142536">Medium (downloaded)</text>

  <text class="ui" x="46" y="450" font-size="13" font-weight="600" fill="#627486">Source language</text>
  <rect x="190" y="430" width="320" height="30" rx="8" fill="#ffffff" stroke="#ccd9e4"/>
  <text class="ui" x="204" y="450" font-size="13" fill="#142536">Auto-detect</text>

  <rect x="22" y="494" width="164" height="30" rx="8" fill="#1cc79a" stroke="#18b58c"/>
  <text class="ui" x="104" y="514" text-anchor="middle" font-size="13" font-weight="700" fill="#06251e">Transcribe</text>
  <rect x="196" y="494" width="164" height="30" rx="8" fill="#c83d55" stroke="#b9344b"/>
  <text class="ui" x="278" y="514" text-anchor="middle" font-size="13" font-weight="700" fill="#fff7f8">Stop</text>
  <rect x="370" y="494" width="170" height="30" rx="8" fill="#f7fafc" stroke="#cddbe5"/>
  <text class="ui" x="455" y="514" text-anchor="middle" font-size="13" font-weight="650" fill="#203140">Open outputs</text>

  <rect x="22" y="540" width="518" height="82" rx="10" fill="#ffffff" stroke="#d8e2eb"/>
  <rect x="38" y="527" width="112" height="24" rx="8" fill="#f4f7fb"/>
  <text class="ui" x="48" y="545" font-size="14" font-weight="700" fill="#142536">Model Manager</text>
  <rect x="42" y="560" width="478" height="34" rx="8" fill="#ffffff" stroke="#d7e1ea"/>
  <text class="ui" x="54" y="582" font-size="12" fill="#263949">Medium - downloaded - ggml-medium.bin</text>
  <rect x="42" y="604" width="104" height="18" rx="4" fill="#f7fafc" stroke="#cddbe5"/>
  <rect x="154" y="604" width="108" height="18" rx="4" fill="#f7fafc" stroke="#cddbe5"/>
  <rect x="270" y="604" width="128" height="18" rx="4" fill="#f7fafc" stroke="#cddbe5"/>
  <rect x="406" y="604" width="114" height="18" rx="4" fill="#f7fafc" stroke="#cddbe5"/>

  <text class="ui" x="576" y="130" font-size="15" font-weight="700" fill="#142536">Log</text>
  <rect x="576" y="144" width="722" height="478" rx="10" fill="#ffffff" stroke="#d7e1ea"/>
  <text class="mono" x="598" y="180" font-size="13" fill="#263949">Selected: ~/Movies/sample-interview.mov</text>
  <text class="mono" x="598" y="210" font-size="13" fill="#263949">=== TRANSCRIBER START ===</text>
  <text class="mono" x="598" y="240" font-size="13" fill="#526678">ffmpeg: third_party/macos/ffmpeg</text>
  <text class="mono" x="598" y="270" font-size="13" fill="#526678">whisper-cli: third_party/macos/whisper-cli</text>
  <text class="mono" x="598" y="300" font-size="13" fill="#526678">Language behavior: auto-detect</text>
  <text class="mono" x="598" y="330" font-size="13" fill="#526678">Output format: srt</text>
  <text class="mono" x="598" y="360" font-size="13" fill="#0aa37f">Ready to transcribe.</text>

  <rect x="576" y="90" width="152" height="28" rx="8" fill="#ffffff" stroke="#d7e1ea"/>
  <text class="ui" x="592" y="109" font-size="12" font-weight="600" fill="#142536">Theme: Light</text>
</svg>
