<?xml version="1.0" encoding="UTF-8"?>
<svg width="512" height="512" viewBox="0 0 512 512" xmlns="http://www.w3.org/2000/svg" role="img" aria-label="Transcriber LP icon">
  <defs>
    <linearGradient id="bgGradient" x1="0%" y1="0%" x2="100%" y2="100%">
      <stop offset="0%" stop-color="#4f6ef7"/>
      <stop offset="100%" stop-color="#2ac1ff"/>
    </linearGradient>
    <filter id="shadow" x="-20%" y="-20%" width="140%" height="140%">
      <feDropShadow dx="0" dy="10" stdDeviation="18" flood-color="#000" flood-opacity="0.2"/>
    </filter>
  </defs>

  <rect x="32" y="32" width="448" height="448" rx="96" ry="96" fill="url(#bgGradient)" filter="url(#shadow)"/>

  <g transform="translate(120,140)">
    <path d="M128,0 C74.328,0 32,42.328 32,96 L32,160 C32,186.51 53.49,208 80,208 H96 C109.255,208 120,197.255 120,184 L120,120 C120,96.653 100.347,77 77,77 H70 C56.745,77 46,67.255 46,54 L46,48 C46,21.49 67.49,0 94,0 H128 Z" fill="#ffffff" opacity="0.95"/>
    <path d="M256,0 C309.672,0 352,42.328 352,96 L352,160 C352,186.51 330.51,208 304,208 H288 C274.745,208 264,197.255 264,184 L264,120 C264,96.653 283.653,77 307,77 H314 C327.255,77 338,67.255 338,54 L338,48 C338,21.49 316.51,0 290,0 H256 Z" fill="#ffffff" opacity="0.95"/>
    <path d="M96,208 L96,300 C96,325.673 115.327,345 141,345 H164 C189.673,345 209,325.673 209,300 L209,208" fill="#ffffff" opacity="0.95"/>
    <path d="M304,208 L304,300 C304,325.673 284.673,345 259,345 H236 C210.327,345 191,325.673 191,300 L191,208" fill="#ffffff" opacity="0.95"/>
    <rect x="38" y="208" width="328" height="26" rx="13" fill="#ffffff" opacity="0.12"/>
    <g transform="translate(72,98)">
      <rect x="0" y="26" width="28" height="64" rx="14" fill="#ffffff"/>
      <rect x="52" y="14" width="20" height="76" rx="10" fill="#ffffff"/>
      <rect x="108" y="36" width="16" height="54" rx="8" fill="#ffffff"/>
      <rect x="152" y="8" width="24" height="82" rx="12" fill="#ffffff"/>
      <rect x="196" y="26" width="18" height="64" rx="9" fill="#ffffff"/>
      <rect x="238" y="42" width="10" height="48" rx="5" fill="#ffffff"/>
    </g>
  </g>

  <circle cx="352" cy="120" r="18" fill="#ffffff" opacity="0.9"/>
  <circle cx="160" cy="120" r="18" fill="#ffffff" opacity="0.9"/>
</svg>
