<?xml version="1.0" encoding="UTF-8"?>
<svg width="512" height="512" viewBox="0 0 512 512" xmlns="http://www.w3.org/2000/svg" role="img" aria-label="Transcriber LP icon">
  <defs>
    <linearGradient id="background" x1="96" y1="72" x2="416" y2="440" gradientUnits="userSpaceOnUse">
      <stop offset="0" stop-color="#13212f"/>
      <stop offset="1" stop-color="#0f6b78"/>
    </linearGradient>
    <linearGradient id="accent" x1="168" y1="112" x2="344" y2="388" gradientUnits="userSpaceOnUse">
      <stop offset="0" stop-color="#7df9d4"/>
      <stop offset="1" stop-color="#43b7ff"/>
    </linearGradient>
    <filter id="shadow" x="-25%" y="-25%" width="150%" height="150%">
      <feDropShadow dx="0" dy="18" stdDeviation="16" flood-color="#061018" flood-opacity="0.32"/>
    </filter>
  </defs>

  <rect x="32" y="32" width="448" height="448" rx="104" fill="url(#background)"/>

  <g fill="none" stroke="url(#accent)" stroke-width="20" stroke-linecap="round">
    <path d="M154 166 C182 134 222 116 256 116 C290 116 330 134 358 166"/>
    <path d="M194 202 C212 184 236 174 256 174 C276 174 300 184 318 202"/>
    <path d="M238 234 C244 229 250 226 256 226 C262 226 268 229 274 234"/>
  </g>

  <g filter="url(#shadow)">
    <rect x="202" y="196" width="108" height="156" rx="54" fill="#f7fbff"/>
    <rect x="226" y="218" width="60" height="112" rx="30" fill="url(#accent)"/>
    <path d="M166 292 C166 342 206 382 256 382 C306 382 346 342 346 292" fill="none" stroke="#f7fbff" stroke-width="28" stroke-linecap="round"/>
    <rect x="242" y="382" width="28" height="50" rx="14" fill="#f7fbff"/>
    <rect x="196" y="424" width="120" height="28" rx="14" fill="#f7fbff"/>
  </g>
</svg>
