<?xml version="1.0" encoding="UTF-8"?>
<svg width="512" height="512" viewBox="0 0 512 512" xmlns="http://www.w3.org/2000/svg" role="img" aria-label="Transcriber LP icon">
  <defs>
    <linearGradient id="background" x1="72" y1="60" x2="436" y2="456" gradientUnits="userSpaceOnUse">
      <stop offset="0" stop-color="#13212f"/>
      <stop offset="0.54" stop-color="#173847"/>
      <stop offset="1" stop-color="#0f6b78"/>
    </linearGradient>
    <linearGradient id="accent" x1="142" y1="118" x2="376" y2="390" gradientUnits="userSpaceOnUse">
      <stop offset="0" stop-color="#7df9d4"/>
      <stop offset="1" stop-color="#43b7ff"/>
    </linearGradient>
    <filter id="softShadow" x="-20%" y="-20%" width="140%" height="140%">
      <feDropShadow dx="0" dy="16" stdDeviation="18" flood-color="#061018" flood-opacity="0.32"/>
    </filter>
  </defs>

  <rect x="32" y="32" width="448" height="448" rx="104" fill="url(#background)"/>
  <path d="M96 368 C150 418 244 438 322 408 C387 383 428 326 434 260" fill="none" stroke="#8ffff1" stroke-opacity="0.16" stroke-width="22" stroke-linecap="round"/>
  <path d="M95 156 C143 103 229 82 307 106 C373 126 419 177 433 238" fill="none" stroke="#ffffff" stroke-opacity="0.08" stroke-width="24" stroke-linecap="round"/>

  <g filter="url(#softShadow)">
    <rect x="132" y="96" width="248" height="320" rx="44" fill="#f7fbff"/>
    <rect x="132" y="96" width="248" height="320" rx="44" fill="#d9f7ff" opacity="0.16"/>
  </g>

  <g fill="#183242">
    <rect x="198" y="154" width="116" height="150" rx="58"/>
    <rect x="218" y="128" width="76" height="178" rx="38" fill="url(#accent)"/>
    <path d="M174 244 C174 290 210 326 256 326 C302 326 338 290 338 244" fill="none" stroke="#183242" stroke-width="24" stroke-linecap="round"/>
    <rect x="244" y="324" width="24" height="44" rx="12"/>
    <rect x="208" y="360" width="96" height="24" rx="12"/>
  </g>

  <g fill="#173847" opacity="0.82">
    <rect x="168" y="158" width="50" height="14" rx="7"/>
    <rect x="294" y="158" width="50" height="14" rx="7"/>
    <rect x="168" y="352" width="42" height="12" rx="6"/>
    <rect x="302" y="352" width="42" height="12" rx="6"/>
  </g>

  <g transform="translate(150 236)" fill="none" stroke="url(#accent)" stroke-width="14" stroke-linecap="round">
    <path d="M0 32 L20 32"/>
    <path d="M40 18 L40 46"/>
    <path d="M66 4 L66 60"/>
    <path d="M94 24 L94 40"/>
    <path d="M122 12 L122 52"/>
    <path d="M150 22 L150 42"/>
    <path d="M176 32 L204 32"/>
  </g>

  <g fill="#183242" opacity="0.24">
    <rect x="174" y="392" width="164" height="10" rx="5"/>
    <rect x="192" y="374" width="128" height="8" rx="4"/>
  </g>
</svg>
